<?xml version="1.0" encoding="UTF-8" standalone="no"?>
<svg width="161px" height="123px" viewBox="0 0 161 123" version="1.1" xmlns="http://www.w3.org/2000/svg" xmlns:xlink="http://www.w3.org/1999/xlink" xmlns:sketch="http://www.bohemiancoding.com/sketch/ns">
    <!-- Generator: Sketch 3.3.3 (12072) - http://www.bohemiancoding.com/sketch -->
    <title>meyer-logo@1x</title>
    <desc>Created with Sketch.</desc>
    <defs></defs>
    <g id="meyer-logo-mark" sketch:type="MSLayerGroup">
        <path d="M38.242,11.502 L37.968,11.502 C37.968,11.502 34.117,10.941 31.454,15.863 C27.376,23.397 24.297,51.364 15.903,55.645 L37.562,55.579 C37.562,55.579 42.134,54.217 44.785,42.816 C45.641,39.114 47.008,34.837 48.251,30.686 C46.315,19.231 42.473,12.998 38.242,11.502" id="Fill-1" fill="#384f05" sketch:type="MSShapeGroup"></path>
        <path d="M92.164,0.72 L91.329,0.72 C91.329,0.72 87.059,0.161 84.108,5.082 C79.592,12.616 75.526,52.777 66.503,55.556 L90.875,55.579 C90.875,55.579 95.943,54.217 98.881,42.816 C99.965,38.585 101.409,32.271 103.038,25.807 C100.255,13.927 96.874,2.244 92.164,0.72" id="Fill-2" fill="#384f05" sketch:type="MSShapeGroup"></path>
        <path d="M139.718,40.987 C139.718,40.987 130.783,54.246 123.21,55.579 L145.547,55.579 C145.547,55.579 149.623,55.48 152.271,51.886 C152.992,50.906 157.602,44.973 160.368,40.987 L139.718,40.987" id="Fill-3" fill="#384f05" sketch:type="MSShapeGroup"></path>
        <path d="M119.173,55.219 C125.289,54.344 132.512,46.786 135.356,42.96 C132.356,33.319 128.842,20.444 127.041,13.461 C124.113,2.056 119.043,0.701 119.043,0.701 L95.076,0.701 C103.546,5.658 105.197,34.04 111.476,51.202 C113.42,56.521 119.173,55.219 119.173,55.219" id="Fill-4" fill="#52acce" sketch:type="MSShapeGroup"></path>
        <path d="M73.668,36.489 C72.444,32.399 70.974,27.884 70.128,24.24 C67.484,12.838 62.908,11.479 62.908,11.479 L41.021,11.479 C49.57,13.975 51.665,43.311 56.802,51.196 C59.855,55.884 63.316,55.556 63.316,55.556 L63.831,55.556 C67.781,54.281 70.944,46.208 73.668,36.489" id="Fill-5" fill="#52acce" sketch:type="MSShapeGroup"></path>
        <path d="M20.992,43.311 L0.213,43.311 C3.377,51.678 9.811,55.36 12.69,55.645 C15.778,54.493 18.927,49.453 20.992,43.311" id="Fill-6" fill="#52acce" sketch:type="MSShapeGroup"></path>
    </g>
    <g id="meyer-logo-text" sketch:type="MSLayerGroup">
        <path d="M14.382,122.398 C13.971,122.398 13.648,122.067 13.648,121.668 L13.648,116.397 L11.481,118.603 C11.481,118.603 11.118,119.012 10.839,119.012 C10.529,119.012 10.196,118.603 10.196,118.603 L7.997,116.397 L7.997,121.653 C7.997,122.051 7.663,122.398 7.257,122.398 C6.857,122.398 6.527,122.051 6.527,121.653 L6.527,114.407 C6.527,114.008 6.831,113.678 7.257,113.678 C7.604,113.678 7.942,114.137 7.942,114.137 L10.839,117.221 L13.7,114.137 C13.7,114.137 14.077,113.678 14.382,113.678 C14.845,113.678 15.12,113.981 15.12,114.415 L15.12,121.668 C15.12,122.067 14.815,122.398 14.382,122.398" id="Fill-7" fill="#393A38" sketch:type="MSShapeGroup"></path>
        <path d="M36.772,122.398 C36.358,122.398 36.044,122.067 36.044,121.668 L36.044,116.397 L33.869,118.603 C33.869,118.603 33.507,119.012 33.228,119.012 C32.923,119.012 32.589,118.603 32.589,118.603 L30.39,116.397 L30.39,121.653 C30.39,122.051 30.056,122.398 29.648,122.398 C29.252,122.398 28.919,122.051 28.919,121.653 L28.919,114.407 C28.919,114.008 29.228,113.678 29.648,113.678 C29.989,113.678 30.343,114.137 30.343,114.137 L33.228,117.221 L36.094,114.137 C36.094,114.137 36.465,113.678 36.772,113.678 C37.232,113.678 37.512,113.981 37.512,114.415 L37.512,121.668 C37.512,122.067 37.21,122.398 36.772,122.398" id="Fill-8" fill="#393A38" sketch:type="MSShapeGroup"></path>
        <path d="M24.816,122.299 L20.022,122.299 C19.586,122.299 19.229,121.952 19.229,121.517 L19.229,114.558 C19.229,114.123 19.586,113.778 20.022,113.778 L24.63,113.778 C25.039,113.778 25.368,114.086 25.368,114.496 C25.368,114.901 25.039,115.226 24.63,115.226 L20.793,115.226 L20.793,117.256 L22.899,117.256 C23.3,117.256 23.629,117.577 23.629,117.987 C23.629,118.395 23.3,118.702 22.899,118.702 L20.793,118.702 L20.793,120.851 L24.816,120.851 C25.229,120.851 25.562,121.172 25.562,121.581 C25.562,121.989 25.229,122.299 24.816,122.299" id="Fill-9" fill="#393A38" sketch:type="MSShapeGroup"></path>
        <path d="M45.515,115.031 C43.78,115.031 42.72,116.414 42.72,118.037 C42.72,119.66 43.78,121.044 45.515,121.044 C47.255,121.044 48.315,119.66 48.315,118.037 C48.315,116.414 47.255,115.031 45.515,115.031 L45.515,115.031 Z M45.515,122.453 C43.012,122.453 41.143,120.506 41.143,118.037 C41.143,115.57 43.012,113.623 45.515,113.623 C48.023,113.623 49.896,115.57 49.896,118.037 C49.896,120.506 48.023,122.453 45.515,122.453 L45.515,122.453 Z" id="Fill-10" fill="#393A38" sketch:type="MSShapeGroup"></path>
        <path d="M57.787,115.212 L55.063,115.212 L55.063,117.548 L57.787,117.548 C58.643,117.548 59.026,116.924 59.026,116.346 C59.026,115.785 58.643,115.212 57.787,115.212 L57.787,115.212 Z M60.602,121.618 C60.602,122.018 60.293,122.398 59.817,122.398 C59.472,122.398 59.255,122.248 59.127,121.975 L57.635,118.894 L55.063,118.894 L55.063,121.618 C55.063,122.051 54.717,122.398 54.284,122.398 C53.845,122.398 53.499,122.051 53.499,121.618 L53.499,114.558 C53.499,114.123 53.845,113.778 54.284,113.778 L57.566,113.778 C59.695,113.778 60.602,114.829 60.602,116.335 C60.602,117.337 60.166,118.189 59.192,118.615 L60.515,121.286 C60.563,121.391 60.602,121.504 60.602,121.618 L60.602,121.618 Z" id="Fill-11" fill="#393A38" sketch:type="MSShapeGroup"></path>
        <path d="M65.213,122.398 C64.777,122.398 64.422,122.043 64.422,121.607 L64.422,114.472 C64.422,114.033 64.777,113.678 65.213,113.678 C65.652,113.678 65.979,114.033 65.979,114.472 L65.979,121.607 C65.979,122.043 65.652,122.398 65.213,122.398" id="Fill-12" fill="#393A38" sketch:type="MSShapeGroup"></path>
        <path d="M73.289,115.798 L71.958,119.049 L74.618,119.049 L73.289,115.798 L73.289,115.798 Z M75.175,120.416 L71.392,120.416 L70.661,121.975 C70.521,122.235 70.345,122.398 70.009,122.398 C69.554,122.398 69.267,122.043 69.267,121.668 C69.267,121.566 69.295,121.467 69.347,121.365 L72.624,114.086 C72.737,113.828 72.956,113.678 73.289,113.678 C73.616,113.678 73.837,113.815 73.951,114.086 L77.229,121.365 C77.282,121.467 77.302,121.566 77.302,121.668 C77.302,122.043 77.024,122.398 76.563,122.398 C76.23,122.398 76.047,122.248 75.91,121.975 L75.175,120.416 L75.175,120.416 Z" id="Fill-13" fill="#393A38" sketch:type="MSShapeGroup"></path>
        <path d="M81.364,122.299 C80.936,122.299 80.573,121.938 80.573,121.504 L80.573,114.472 C80.573,114.033 80.936,113.678 81.364,113.678 C81.804,113.678 82.136,114.033 82.136,114.472 L82.136,120.828 L85.87,120.828 C86.263,120.828 86.603,121.147 86.603,121.555 C86.603,121.965 86.263,122.281 85.87,122.299 L81.364,122.299" id="Fill-14" fill="#393A38" sketch:type="MSShapeGroup"></path>
        <path d="M101.38,115.247 L99.193,115.247 L99.193,121.607 C99.193,122.043 98.835,122.398 98.401,122.398 C97.971,122.398 97.634,122.043 97.634,121.607 L97.634,115.247 L95.434,115.247 C95.024,115.247 94.69,114.917 94.69,114.52 C94.69,114.11 95.012,113.778 95.434,113.778 L101.38,113.778 C101.792,113.778 102.126,114.11 102.126,114.52 C102.126,114.917 101.806,115.247 101.38,115.247" id="Fill-15" fill="#393A38" sketch:type="MSShapeGroup"></path>
        <path d="M109.595,115.212 L106.873,115.212 L106.873,117.548 L109.595,117.548 C110.454,117.548 110.837,116.924 110.837,116.346 C110.837,115.785 110.454,115.212 109.595,115.212 L109.595,115.212 Z M112.409,121.618 C112.409,122.018 112.1,122.398 111.63,122.398 C111.283,122.398 111.067,122.248 110.938,121.975 L109.441,118.894 L106.873,118.894 L106.873,121.618 C106.873,122.051 106.524,122.398 106.089,122.398 C105.655,122.398 105.315,122.051 105.315,121.618 L105.315,114.558 C105.315,114.123 105.655,113.778 106.089,113.778 L109.383,113.778 C111.502,113.778 112.409,114.829 112.409,116.335 C112.409,117.337 111.974,118.189 111.004,118.615 L112.32,121.286 C112.368,121.391 112.409,121.504 112.409,121.618 L112.409,121.618 Z" id="Fill-16" fill="#393A38" sketch:type="MSShapeGroup"></path>
        <path d="M121.812,114.472 C121.812,114.033 122.159,113.678 122.598,113.678 C123.03,113.678 123.378,114.033 123.378,114.472 L123.378,118.858 C123.378,121.057 122.009,122.453 119.727,122.453 C117.45,122.453 116.083,121.057 116.083,118.858 L116.083,114.472 C116.083,114.033 116.427,113.678 116.868,113.678 C117.297,113.678 117.646,114.033 117.646,114.472 L117.646,119.022 C117.646,120.212 118.366,121.044 119.727,121.044 C121.096,121.044 121.812,120.212 121.812,119.022 L121.812,114.472" id="Fill-17" fill="#393A38" sketch:type="MSShapeGroup"></path>
        <path d="M130.351,122.453 C129.314,122.453 128.134,122.129 127.396,121.555 C127.135,121.352 126.963,121.093 126.963,120.811 C126.963,120.416 127.217,120.147 127.612,120.147 C127.755,120.147 127.88,120.189 128.012,120.263 C128.696,120.699 129.172,121.078 130.38,121.078 C131.6,121.078 132.085,120.586 132.085,120.007 C132.085,119.38 131.592,119.058 130.051,118.651 C127.74,118.037 127.05,117.295 127.05,116.014 C127.05,114.456 128.394,113.623 130.423,113.623 C130.886,113.623 131.509,113.704 132.061,113.857 C132.653,114.021 133.394,114.39 133.394,114.901 C133.394,115.247 133.188,115.608 132.752,115.608 C132.653,115.608 132.551,115.594 132.442,115.544 C131.857,115.271 131.243,115.008 130.438,115.008 C129.3,115.008 128.606,115.314 128.606,115.976 C128.606,116.601 129.118,116.822 130.652,117.27 C132.405,117.781 133.646,118.283 133.646,119.915 C133.646,121.404 132.521,122.453 130.351,122.453" id="Fill-18" fill="#393A38" sketch:type="MSShapeGroup"></path>
        <path d="M143.175,115.247 L140.981,115.247 L140.981,121.607 C140.981,122.043 140.627,122.398 140.19,122.398 C139.761,122.398 139.427,122.043 139.427,121.607 L139.427,115.247 L137.226,115.247 C136.814,115.247 136.484,114.917 136.484,114.52 C136.484,114.11 136.802,113.778 137.226,113.778 L143.175,113.778 C143.582,113.778 143.913,114.11 143.913,114.52 C143.913,114.917 143.593,115.247 143.175,115.247" id="Fill-19" fill="#393A38" sketch:type="MSShapeGroup"></path>
        <path d="M47.784,99.118 C47.784,100.1 47.034,100.852 46.046,100.852 C45.062,100.852 44.31,100.1 44.31,99.118 L44.31,86.255 C44.31,81.042 42.34,77.742 36.952,77.742 C32.026,77.742 28.932,81.332 28.932,87.012 L28.932,99.118 C28.932,100.1 28.18,100.852 27.196,100.852 C26.211,100.852 25.455,100.1 25.455,99.118 L25.455,86.255 C25.455,81.042 23.092,77.742 17.709,77.742 C12.782,77.742 10,81.332 10,87.012 L10,99.118 C10,100.1 9.248,100.852 8.264,100.852 C7.281,100.852 6.527,100.1 6.527,99.118 L6.527,76.526 C6.527,75.54 7.281,74.784 8.264,74.784 C9.248,74.784 10,75.54 10,76.526 L10,79.536 C11.856,76.351 14.23,74.558 18.454,74.558 C23.092,74.558 26.268,77.043 27.833,80.407 C30.267,76.174 33.241,74.558 37.705,74.558 C44.423,74.558 47.784,79.479 47.784,86.198 L47.784,99.118" id="Fill-20" fill="#393A38" sketch:type="MSShapeGroup"></path>
        <path d="M66.215,77.452 C61.118,77.452 57.411,81.332 56.946,86.083 L75.191,86.083 C74.731,81.218 71.196,77.452 66.215,77.452 L66.215,77.452 Z M78.38,87.533 C78.38,88.342 77.685,88.981 76.929,88.981 L56.829,88.981 C57.002,93.614 60.479,98.134 66.562,98.134 C69.806,98.134 72.357,96.972 74.441,94.483 C74.731,94.133 75.137,93.729 75.774,93.729 C76.7,93.729 77.219,94.424 77.219,95.177 C77.219,95.582 77.105,95.871 76.873,96.219 C74.905,98.942 71.137,101.086 66.562,101.086 C58.28,101.086 53.296,94.828 53.296,87.82 C53.296,80.753 58.57,74.558 66.215,74.558 C73.342,74.558 78.38,80.118 78.38,87.533 L78.38,87.533 Z" id="Fill-21" fill="#393A38" sketch:type="MSShapeGroup"></path>
        <path d="M104.293,77.105 C104.293,77.105 98.811,91.094 95.78,97.727 C93.311,103.112 91.296,107.148 86.14,110.217 C85.845,110.39 85.558,110.508 85.094,110.508 C84.165,110.508 83.586,109.873 83.586,109.059 C83.586,108.421 83.938,108.015 84.632,107.613 C87.815,105.408 88.768,104.215 91.085,100.216 L81.235,77.218 C81.121,76.931 81.007,76.642 81.007,76.351 C81.007,75.482 81.644,74.784 82.629,74.784 C83.438,74.784 83.843,75.19 84.135,75.887 L92.882,96.51 L101.457,75.77 C101.686,75.19 102.092,74.784 102.902,74.784 C103.89,74.784 104.468,75.482 104.468,76.351 C104.468,76.583 104.409,76.813 104.293,77.105" id="Fill-22" fill="#393A38" sketch:type="MSShapeGroup"></path>
        <path d="M119.806,77.452 C114.701,77.452 110.995,81.332 110.532,86.083 L128.783,86.083 C128.32,81.218 124.784,77.452 119.806,77.452 L119.806,77.452 Z M131.971,87.533 C131.971,88.342 131.271,88.981 130.52,88.981 L110.416,88.981 C110.589,93.614 114.065,98.134 120.153,98.134 C123.393,98.134 125.942,96.972 128.03,94.483 C128.32,94.133 128.727,93.729 129.362,93.729 C130.286,93.729 130.808,94.424 130.808,95.177 C130.808,95.582 130.692,95.871 130.463,96.219 C128.492,98.942 124.728,101.086 120.153,101.086 C111.87,101.086 106.885,94.828 106.885,87.82 C106.885,80.753 112.157,74.558 119.806,74.558 C126.93,74.558 131.971,80.118 131.971,87.533 L131.971,87.533 Z" id="Fill-23" fill="#393A38" sketch:type="MSShapeGroup"></path>
        <path d="M152.444,76.652 C147.31,76.652 142.068,82.141 142.068,88.831 L142.068,99.158 C142.068,100.114 141.289,100.952 140.279,100.952 C139.319,100.952 138.487,100.114 138.487,99.158 L138.487,75.869 C138.487,74.795 139.263,74.078 140.279,74.078 C141.35,74.078 142.068,74.854 142.068,75.869 L142.068,80.051 C143.203,76.647 148.202,73.483 152.444,73.483 C153.461,73.483 154.234,74.083 154.234,75.039 C154.234,76.112 153.399,76.652 152.444,76.652" id="Fill-24" fill="#393A38" sketch:type="MSShapeGroup"></path>
    </g>
</svg>